<?xml version="1.0" encoding="UTF-8"?>
<svg xmlns="http://www.w3.org/2000/svg" xmlns:xlink="http://www.w3.org/1999/xlink" viewBox="0 0 1979.54 1979.53">
   <path fill="#ff5400" d="M1979.54,989.76C1979.54,443.13,1536.4,0,989.77,0S0,443.13,0,989.76C0,1223.88,81.29,1439,217.19,1608.49l.09.12h0l-.1-.12c42.5-95.92,58.37-172.21,58.37-172.21s43.87,9,28.12-20.25-41.05-55.67-18.56-108.53,41.62-51.74,50.62-63-15.75-32.62-16.87-63-25.87-82.11,12.37-124.85-9-42.74,6.75-78.73,11.24-49.49,3.37-83.23-6.75-65.23,5.63-81,21.36-39.37,12.37-52.86-5.63-40.49,1.12-56.24S388.6,655.15,388.6,636s6.75-46.11,25.87-63,25.87-12.38,36-27-4.5-14.62,20.25-21.37,38.24-6.75,41.61-16.87,15.75-15.74,19.12-21.37,3.38-10.12,19.12-31.49,34.87-52.86,63-74.23,39.36-25.87,54-37.12S693.4,324.48,708,324.48s14.63,2.25,22.5-9,40.49-45,73.11-37.11,48.36,11.24,60.73,4.5,28.12-46.12,72-39.37,51.73,18,70.85,9,34.87-25.87,65.24-15.75,57.36-29.24,93.35-20.24,72,6.74,86.61,18,7.87,9,32.61,9,42.74,9,49.49,13.5,55.11,4.5,61.86,13.49,45-3.37,58.49,20.25,14.62,42.74,23.62,50.61,23.62-3.37,31.49,21.37,6.75,30.37,28.12,39.37,39.36,22.49,46.11,55.11,9,46.11,19.12,56.24,2.25,18,25.87,28.11,55.11,45,57.36,74.24-1.12,41.61,6.75,70.85,2.25,32.62,13.5,51.74,23.62,33.74,25.87,54-11.25,21.37-6.75,50.61,16.87,42.74,10.12,52.86-14.62,21.37-4.5,54,10.12,58.49,3.38,75.36,13.49,47.24,13.49,47.24,6.75,5.62,9,43.86S1772,1150,1763,1200.65s-36,73.11-22.49,93.35,21.37,9,47.24,56.24,21.37,66.36,46.11,65.23c9.87-.45,21.93,13.19,28.18,41.79h.33C1937.13,1318,1979.54,1158.85,1979.54,989.76Z" />
   <path fill="#000" d="M1862.06,1457.26c-6.25-28.6-18.31-42.24-28.18-41.79-24.74,1.13-20.24-18-46.11-65.23s-33.74-36-47.24-56.24,13.5-42.74,22.49-93.35-3.37-46.12-5.62-84.36-9-43.86-9-43.86-20.24-30.37-13.49-47.24,6.74-42.74-3.38-75.36-2.25-43.86,4.5-54-5.62-23.61-10.12-52.86,9-30.37,6.75-50.61-14.63-34.87-25.87-54-5.63-22.49-13.5-51.74-4.5-41.61-6.75-70.85-33.74-64.11-57.36-74.24-15.75-18-25.87-28.11-12.37-23.62-19.12-56.24-24.74-46.12-46.11-55.11-20.25-14.62-28.12-39.37-22.5-13.5-31.49-21.37-10.13-27-23.62-50.61-51.74-11.25-58.49-20.25-55.11-9-61.86-13.49-24.74-13.5-49.49-13.5-18,2.25-32.61-9-50.62-9-86.61-18-63,30.36-93.35,20.24-46.12,6.75-65.24,15.75-27-2.25-70.85-9-59.62,32.62-72,39.37-28.12,3.37-60.73-4.5-65.24,25.87-73.11,37.11-7.87,9-22.5,9-25.86,7.87-40.49,19.12-25.86,15.75-54,37.12-47.24,52.86-63,74.23-15.74,25.87-19.12,31.49-15.74,11.25-19.12,21.37-16.87,10.12-41.61,16.87-10.13,6.75-20.25,21.37-16.87,10.13-36,27-25.87,43.86-25.87,63-21.37,52.86-28.12,68.61-10.12,42.74-1.12,56.24,0,37.11-12.37,52.86-13.5,47.24-5.63,81S353.73,942,338,978s31.49,36-6.75,78.73-13.5,94.48-12.37,124.85,25.87,51.73,16.87,63-28.12,10.12-50.62,63,2.82,79.29,18.56,108.53-28.12,20.25-28.12,20.25-15.87,76.29-58.37,172.21l.1.12c181.39,226.13,460,370.92,772.48,370.92,377.37,0,705.41-211.2,872.39-521.84C1862.13,1457.55,1862.09,1457.41,1862.06,1457.26Z" />
   <path fill="#a46000" d="M1384,1273.76c-12.37,12.37-3.38,15.74-31.49,21.36s-207-11.24-231.7-37.11-31.49-30.37-41.61-36c-5.66-3.15-11.33-8.06-11.67-14.52-.28-5.1,2.75-11.16,11.67-18.1,20.24-15.75,46.11-20.25,60.73-28.12s30.37-2.25,45-7.87,32.62-11.25,48.36-5.63,16.88-2.24,32.62,5.63,19.12,6.75,31.49,9,21.37,0,28.12,6.74,13.5-5.62,23.62,4.5,11.25,16.87,22.5,25.87,21.37,16.87,20.24,1.13,3.38-34.87-4.5-46.12-4.5-16.87-21.37-24.74-36-10.12-55.11-14.62-33.74-2.25-55.11-10.12-39.37,4.49-60.74,6.74-24.74-5.62-42.74,5.63-36,21.37-60.73,41.61-35.93,24.71-33.77,49.25a2,2,0,0,1,0,.24c2.25,24.74-1.13,34.87,11.24,51.74s-2.25,40.49,5.63,56.23c2.11,4.25,5.22,10,8.26,16.12l20.11-.35c-1.75-3-2.12-5.71-.25-7.89,6.74-7.88,22.49,1.12,32.61,12.37s16.87,21.37,37.12,32.62,43.86,25.87,37.12,10.12-18-31.49-18-31.49,1.12-6.75,23.62-11.25,28.12,2.25,49.49,0,38.24-1.12,56.23,3.37,30.37,1.13,28.12,15.75-5.62,20.25,2.25,23.62c4.94,2.11,10.32,5.56,10.32,8.38h18.25c.88-8.37,5.59-17.73,6.3-29.76,1.12-19.12,6.75-40.49,6.75-57.36S1396.36,1261.38,1384,1273.76ZM1515.31,992.9c-6.25-20.11-20.55-38.93-40.7-45-37.3-11.27-83.47,22.12-113.64-2.55-8.6-7-13.53-17.49-18.13-27.6-6.82-15-13.58-30.53-18.43-46.37-6.21-20.29-9.27-41.06-5.25-61.74,7.16-36.82,47.22-69.31,81.62-54.34,10.23,4.45,20.46,12.7,31.16,9.58,13.89-4.08,15.1-25.3,5.2-35.85s-25.41-13.11-39.74-15.09q-85.82-11.86-171.64-23.71c-4.55-.63-9.28-1.26-13.7,0-14,4.1-16,23.72-10.67,37.3,9.86,25.25,34.21,42.57,60.07,50.69,6.15,1.93,13.3,4.16,15.65,10.17,4.39,11.19-11.13,18.92-22.74,22s-25.18,16.11-16.46,24.38c13.42-10.26,33.47-8.59,47.43.93,12.65,8.62,20.84,22.46,25.6,37.1.49,1.52,1,3,1.37,4.57,5.07,18.47,5.23,39.37-5,55.57s-32.89,25.17-49.61,15.85c-11.12-6.19-17.56-18.66-28.53-25.09s-30.41.58-26.63,12.73c2.39,7.7,12.4,10.37,16.32,17.42,7,12.59-10.2,25.73-24.59,26s-30.17-4.53-42.29,3.23a23.75,23.75,0,0,0-9,10.53c-6.15,13.82-.64,33.88,6.65,48.95-31.23,57.42-122.67,68.16-140.35,131.08-3.41-38.17,23.22-72.25,51.44-98.16,27.77-25.51,59.73-49.08,75.08-83.4.25-.54.49-1.09.72-1.64,7.89-18.46,4.17-47.5-15.87-48.67-6.05-.35-11.85,2.25-17.86,3-14.69,1.88-28.3-7.16-42.57-11.08-38.46-10.55-79.73,16.44-118.3,6.27-30.72-8.1-54.43-38.7-86.21-37.93a49.53,49.53,0,0,0-9.31,1.11c-16.16,3.55-28.55,15.48-37.48,28.85a134.14,134.14,0,0,0-10.25,19.11c-4.24,9.28-8.07,18.75-13.25,27.59-3.1,5.26-6.19,10.44-7.9,16.35-2.74,9.51-2.86,19.67-3.52,29.48q-1.38,20.37-2.36,40.74a22.16,22.16,0,0,1,6.13,4.86c6.75,9,7.87-19.12,15.74-11.25s20.25,20.25,13.5,38.24,2.25,28.12-3.37,37.12-6.75,13.49-9,21.37-6.75,6.75-7.87-4.5,6.74-28.12-3.38-15.75c-7.39,9-8.78,30.07-14.26,31.11v.73q0,35.4,1.12,70.77c15.65,31.48,39.57,78.91,59.26,94.22,30.36,23.62,41.61,47.24,67.48,65.24s28.12-3.38,45,10.12,0,20.24,19.12,30.37c18.14,9.6,33.24,39.44,22.26,59.76a26.61,26.61,0,0,1-2,3.22c-14.62,20.25-39.36,22.5-66.35-6.75s-31.5-48.36-52.87-59.61-48.42-32.58-77.56-2.37q2.15,21,4.38,42c5.87,55.89,11.74,111.85,13.36,168,1.63,56.64-1,113.79,9,169.57s34.67,111.54,80.15,145.34q71.49-63.63,147.14-122.33c17.92-13.9,39.69-28.38,61.54-22.29,13.65,3.8,26.33,15.47,40,11.75,7.16-2,12.49-7.79,17.26-13.46,37.39-44.49,66-95.08,94.34-146,1.18-9.87,3.87-21,5.18-28.92,3.38-20.25,10.13-13.5,13.5-25.87s-18-23.62-38.24-16.87-60.74,3.37-87.73-10.12-30.37-1.13-56.24-10.13-11.24-12.37-43.86-22.49-32.62,1.12-42.74-7.87,3.37-13.5,0-23.62-3.37-9-1.12-19.12a5.83,5.83,0,0,1,.32-1c3.4-8.4,22.46.46,30,14.54,7.88,14.62,16.87,1.13,29.25,12.38s34.86,13.49,38.24,4.49-20.25-18-23.62-30.36,20.24,2.25,40.49,12.37,36,15.74,69.73,20.24,64.11-3.37,84.36-2.25,21.37-18,31.49-28.11,15.75,5.62,22.49,3.37,10.13-11.25,20.25-10.12c4,.45,8.15,2.46,11.86,4.81,46.67-62.89,96-124.15,125.13-196.44,31.45-78.13,37.07-164,39.88-248.12C1521.07,1034.52,1521.57,1013,1515.31,992.9Zm-160.56,398.95c-13.5,2.25-25.87,5.63-39.37,18s-20.24,38.24-43.86,33.74-34.87-13.5-61.86-28.12-27-11.25-46.12-23.62-22.49-20.24-33.74-32.62c-8.13-9-22.16-19.07-26.74-27-1.75-3-2.12-5.71-.25-7.89,6.74-7.88,22.49,1.12,32.61,12.37s16.87,21.37,37.12,32.62,43.86,25.87,37.12,10.12-18-31.49-18-31.49,1.12-6.75,23.62-11.25,28.12,2.25,49.49,0,38.24-1.12,56.23,3.37,30.37,1.13,28.12,15.75-5.62,20.25,2.25,23.62c4.94,2.11,10.32,5.56,10.32,8.38C1361.69,1389.55,1359.78,1391,1354.75,1391.85Zm100.1-190.08c-1.13,21.37-18,65.24-19.12,81s-2.25,48.37-18,66.36-23.62,65.24-33.74,52.86a17.8,17.8,0,0,1-4-14.1c.88-8.37,5.59-17.73,6.3-29.76,1.12-19.12,6.75-40.49,6.75-57.36s3.37-39.37-9-27-3.38,15.74-31.49,21.36-207-11.24-231.7-37.11-31.49-30.37-41.61-36c-5.66-3.15-11.33-8.06-11.67-14.52-.28-5.1,2.75-11.16,11.67-18.1,20.24-15.75,46.11-20.25,60.73-28.12s30.37-2.25,45-7.87,32.62-11.25,48.36-5.63,16.88-2.24,32.62,5.63,19.12,6.75,31.49,9,21.37,0,28.12,6.74,13.5-5.62,23.62,4.5,11.25,16.87,22.5,25.87,21.37,16.87,20.24,1.13,3.38-34.87-4.5-46.12-4.5-16.87-21.37-24.74-36-10.12-55.11-14.62-33.74-2.25-55.11-10.12-39.37,4.49-60.74,6.74-24.74-5.62-42.74,5.63-36,21.37-60.73,41.61-35.93,24.71-33.77,49.25a2,2,0,0,1,0,.24c2.25,24.74-1.13,34.87,11.24,51.74s-2.25,40.49,5.63,56.23c2.11,4.25,5.22,10,8.26,16.12,8.26,16.53,16.13,35.23,3,31.12-18-5.62-20.24-11.24-31.49-36s-18-34.86-27-49.49-13.5-54-13.5-69.73,5.63-24.74,18-38.24-3.38-19.12,20.24-33.74,76.48-49.49,76.48-49.49,33.75-18,47.24-27,22.5-19.12,10.13-21.37-15.75-11.25-11.25-16.88,25.87-30.36,58.48-16.87,52.87,49.49,70.86,48.37,29.25-27,49.49-30.37,31.49-9,36,11.25-11.24,33.74,0,32.61,19.12-7.87,14.62-20.24,1.13-31.49,9-16.87-6.75,46.11-4.5,49.49,13.5,11.24,23.62,23.62,21.37,32.61,4.5,24.74-37.11-31.49-38.24-24.74,7.87,16.87,15.75,29.24,10.12,61.86,15.74,65.23,9-39.36,4.5-47.24,2.25-19.12,12.37-9S1456,1180.4,1454.85,1201.77Z" />
   <path fill="#a46000" d="M1400.29,809.48a7.24,7.24,0,0,1,4-3.94,25.37,25.37,0,0,1,6.94-1.37c10.14-1.18,20.06-4.38,30.28-4.45a50.27,50.27,0,0,1,38,17.33c1.55,1.82,3,4,2.92,6.35-.2,3.94-4.44,6.21-8.1,7.69l-10.21,4.15a3.58,3.58,0,0,0-1.75,1.18c-.6,1-.13,2.23.43,3.23,3.77,6.78,10.73,11.22,17.91,14.18s14.79,4.75,21.92,7.84a7.33,7.33,0,0,1,3.47,2.47c1,1.5.79,3.45.53,5.22a98.15,98.15,0,0,1-7.87,26.51c-.69,1.52-1.66,3.2-3.3,3.46s-2.94-.89-4.09-2c-10.95-10.06-22.37-20.86-26.54-35.13-.7-2.4-1.32-5.09-3.37-6.54-1.6-1.14-3.7-1.22-5.66-1.16-14.5.41-29.13,6-43.21,2.44-1.25-.32-2.65-.86-3-2.09-.68-2,1.88-3.57,4-4.18q9.71-2.91,19.6-5.2a23.92,23.92,0,0,0,7.43-2.57c2.23-1.4,4-3.8,3.94-6.44s-2.24-5.12-4.73-6.33-5.31-1.52-8-1.94a96.43,96.43,0,0,1-22.67-6.32,20.35,20.35,0,0,1-6.77-4.06A7.79,7.79,0,0,1,1400.29,809.48Z" />
   <path fill="#a46000" d="M1396.52,903.29a9.58,9.58,0,0,1,2.71-.14c7.34.53,14.52,2.39,21.83,3.13,4.67.47,9.39.48,14,1.42,3.72.76,7.31,2.11,11.07,2.67,7.32,1.11,15.05-.81,22.05,1.59,4,1.37,7.41,4,10.48,6.95,2.47,2.35,4.87,5.11,5.34,8.48a8.8,8.8,0,0,1-5.48,9.18c-3,1.1-6.3.5-9.32,1.39-2.82.83-5.21,2.92-8.12,3.34s-5.58-.8-8.29-1.68c-5.8-1.87-12-2.25-18-3.26a80.26,80.26,0,0,1-25.43-8.77,36.91,36.91,0,0,1-11.21-8.8,19.38,19.38,0,0,1-4.41-10.43c-.13-1.53-.29-3.32,1.08-4.34A4.29,4.29,0,0,1,1396.52,903.29Z" />
   <path fill="#a46000" d="M1188.28,814.87c-12.37,2.25-6.75-11.25-22.49,1.12s-15.75,21.37-29.24,18-14.63-4.5-29.25-3.38-20.24-4.5-40.49,0-21.37,0-41.61,5.63c-18.37,5.1-.64.94-28.25,10.2a14.1,14.1,0,0,1,3.32-5.31c3.88-3.86,9.62-5,14.93-6.28,20.3-5.05,39.43-15.89,60.34-16.28,15-.28,30,4.94,44.91,3.07,1.73-.22,3.82-.88,4.11-2.6a3.59,3.59,0,0,0-.47-2.13c-2.2-4.66-7-7.56-11.79-9.39-8.33-3.12-17.37-3.8-26.26-3.75a197.7,197.7,0,0,0-49.53,6.88,250.43,250.43,0,0,0-25.84,8.4c-24.06,9.26-46.73,21.83-68.53,35.59-3.94,2.48-11.18,5.54-13.85,9.42a4.69,4.69,0,0,0-.83,2.8c-18.4,1.32-21.83-22.56-1.24-47.49,0,0,19.12-20.25,20.25-30.37s5.62-14.62,13.49-12.37,11.25,3.37,11.25,13.49,0,13.5-6.75,21.37S953.21,827.24,942,837.36s-24.75,19.12-18,19.12,14.62-2.25,22.5-12.37,14.62-14.62,21.37-23.62a108.91,108.91,0,0,0,13.49-23.62c2.25-5.62,4.5-11.25,4.5-1.12s-9,31.49-2.25,24.74,10.12-7.87,13.5-19.12,4.5-14.62,7.87-29.24,6.75-19.12,15.75-21.37,14.62,7.87,41.61,7.87,34.87,16.87,43.87,12.37,14.62-10.12,29.24-4.5,25.87,5.63,36,12.38,21.37,7.87,23.62,16.87S1200.66,812.62,1188.28,814.87Z" />
   <path fill="#a46000" d="M971.21,875.6s21.37,2.25,40.49-1.12,36,2.25,48.36-1.13,28.12,3.38,36-1.12,21.37-4.5,18,2.25-9,15.74-25.87,11.25-21.37-5.63-39.36-1.13-21.37,18-46.12,7.87S969,883.48,971.21,875.6Z" />
   <path fill="#fff" d="M1110.51,1184.61a8.56,8.56,0,0,1,3-2.6c5.46-3.34,11.84-6.81,17.94-4.86,2,.64,3.92,1.86,6,1.76a10,10,0,0,0,4.18-1.53l9.48-5.19a22.42,22.42,0,0,1,6-2.56c7.56-1.65,15.81,4.52,22.8,1.2,4.54-2.16,6.68-7.59,11-10.14,3.48-2.06,7.77-1.92,11.81-1.72,5.74.28,11.63.6,16.91,2.87,3.93,1.7,7.57,4.47,11.84,4.73,4.85.28,9.19-2.74,13.79-4.32,10.91-3.73,24.17,1.88,29.1,12.3.83,1.76,1.88,3.94,3.83,4s3.09-2.15,4.32-3.71c4.26-5.42,11.76-2.71,17.41-1.68,6.44,1.18,12,2.75,16.08,8.32a8.16,8.16,0,0,0,2.65,2.79,6.41,6.41,0,0,0,3,.46c5.91-.06,11.9-1.11,17.68.14s11.48,5.76,11.52,11.67c0,1.39-.21,3,.85,4s2.5.53,3.82.48c4.65-.18,8.59,4,9.69,8.51s0,9.28-1.24,13.76c-2,7.1-5.31,15-12.31,17.26-5.11,1.68-10.78-.23-15.23-3.25s-8.09-7.09-12.31-10.42c-10.93-8.64-25.06-11.87-38.66-14.86l-29.18-6.42c-3.55-.78-7.28-1.56-10.77-.55-4.62,1.34-8,5.61-12.73,6.66-7.88,1.77-14.54-6-22.36-8-9.22-2.42-19.67,3.27-28.23-.91-3.27-1.6-6.2-4.6-9.83-4.32-2.43.19-4.45,1.85-6.57,3.07a20.34,20.34,0,0,1-22.27-1.65c-1.31-1-2.55-2.28-4.16-2.72-2.87-.78-5.74,1.25-7.69,3.49s-3.66,4.91-6.38,6.11c-4.1,1.8-9.07-.61-11.61-4.3s-3.2-8.31-3.71-12.75c-.19-1.66-.35-3.45.46-4.91Z" />
   <path fill="#fff" d="M1121.45,1223.46c1.45-3,7.74-5.26,10.19-6,9.18-2.64,19.95-.47,26.68,6.53a14.29,14.29,0,0,0,3.58,3.15c3.12,1.57,6.81,0,10-1.43s7.31-2.41,9.88,0c1.37,1.25,2,3.23,3.49,4.3s3.33,1,5.07.81c8.42-.66,16.73-2.48,25.15-3s17.26.41,24.49,4.76c4.19,2.52,7.91,6.2,12.72,7s9.39-1.25,14.13-1c8.36.38,15,7.63,23.27,8.9,4.43.67,9-.43,13.38.65s8.12,4.39,12.49,5.87c5.65,1.93,12.09.72,17.58,3.08,8.58,3.71,11.39,14.26,13.15,23.43a8.1,8.1,0,0,1,0,4.42c-1,2.78-4.57,3.54-7.54,3.79-20,1.71-40.1-.5-60.06-2.7-9.42-1-18.91-2.1-27.92-5-7.4-2.4-14.38-6-21.9-8-4.85-1.28-10-1.93-14.18-4.72-2-1.36-3.78-3.21-6.1-4-2.66-.87-5.54-.14-8.31.21a30.5,30.5,0,0,1-21.87-5.82c-2.9-2.18-5.56-5-9.1-5.78-2.07-.48-4.26-.21-6.35-.62-5.14-1-8.58-5.68-12.71-8.9-4.9-3.81-11-5.66-16.68-8.15-3.9-1.71-11.44-5.16-12.76-9.72A2.74,2.74,0,0,1,1121.45,1223.46Z" />
   <circle fill="#fff" cx="1080.31" cy="857.61" r="7.87" />
   <path fill="#fff" d="M1096.62,840.17s0-4.49,5.62-3.37,12.37,2.25,15.75,3.37,10.12,1.13,9,6.75,1.68,9.56-2.82,12.94-7.87,1.12-12.37,3.37-6.75,2.25-10.12-1.12-2.25-6.75-2.25-10.13S1096.05,841.86,1096.62,840.17Z" />
   <circle fill="#fff" cx="1416.04" cy="884.04" r="9" transform="translate(-210.36 1260.22) rotate(-45)" />
   <path fill="#fff" d="M1428.41,887.41c3.57-2.17,9.23-5.5,13.5-3.37,4.5,2.25,10.12,3.37,10.12,7.87s-3.37,13.5-7.87,13.5-20.25-4.5-15.75-16.87" />
   <path fill="#fff" d="M1349.08,877.82a2.19,2.19,0,0,1,.83-.38,8.42,8.42,0,0,1,2.19-.06,14.31,14.31,0,0,0,8.94-2.83c1.86-1.39,3.41-3.25,5.54-4.16s4.91-.71,7.16-1.73c2-.91,3.59-2.79,5.77-3.15a8.45,8.45,0,0,1,3.84.54q2.91.91,5.73,2c.91.36,1.93.85,2.2,1.8.35,1.23-.75,2.34-1.6,3.3a11.66,11.66,0,0,0-1.1,13.55c.43.68.9,1.65.29,2.17a1.47,1.47,0,0,1-.63.27,26.55,26.55,0,0,1-7.86.46c-7.06-.4-14.11-1.7-21.14-1-2,.2-4,.54-5.86-.14a7.29,7.29,0,0,1-4-4C1348.71,882.86,1347.38,879.13,1349.08,877.82Z" />
   <path fill="#c71" opacity="0.7" d="M855.67,1488.52c1.64-1.55,4.38-2,8.93-.66,31.87,9.36,57.13,33,84.24,52.18,22.39,15.86,46.72,29.07,67.71,46.74,10.45,8.8,20.31,19.14,24.6,32.11,4.51,13.62,2.36,28.47-.27,42.58-3.6,19.32-8.05,38.63-16,56.62-3.94,9-8.85,17.69-16,24.33s-17,11-26.69,9.89c-9.25-1-17.33-6.68-24.13-13-15-14-25.74-32-38.92-47.73-16.27-19.47-36.54-36-48.78-58.18-15.56-28.24-16.2-62-16.47-94.26q-.14-16.93-.28-33.87C853.54,1498.94,852.43,1491.58,855.67,1488.52Z" />
   <path fill="#c71" opacity="0.54" d="M873.36,952.08s16.87,5.63,75.35,5.63,104.61-12.37,112.48,12.37,14.62,38.24-30.37,63-59.61,15.74-72,67.48-6.75,88.85,18,147.34,76.49,104.6,50.62,124.85-86.61-5.63-119.23-65.24-67.48-59.61-60.73-136.09,2.25-114.72-7.87-158.59S856.49,948.71,873.36,952.08Z" />
   <path fill="#fff" d="M477.44,395.06c1.47-2,5.51-2.82,8.05-2.88,29.61-.78,58.22,13.48,87.79,11.8a152,152,0,0,1-18.66-32.18c-1.09-2.56-1.77-6.22.68-7.53,1.9-1,4.17.31,5.87,1.62a134.1,134.1,0,0,1,24.49,24.58,522.3,522.3,0,0,1,32-91.26c3.67,2.81,3.58,8.26,3.12,12.86q-4.49,44.46-12.59,88.45a139.36,139.36,0,0,1,30.64-15.44c2.32-.83,5.79-1,6.37,1.37.39,1.56-.93,3-2.12,4.06l-28.34,25.56q40.92,9.89,81.1,22.51a7,7,0,0,1,3.81,2.16c1.41,1.92.46,4.83-1.43,6.27s-4.39,1.78-6.76,1.9c-26.27,1.39-50.78-15.59-77.07-14.84-1,0-2.29.21-2.74,1.15a2.82,2.82,0,0,0,.19,2.21c4.14,10.66,14.53,18.09,18.12,28.95a5.3,5.3,0,0,1,.12,4c-1.72,3.36-6.81.74-9.32-2.08l-18.65-21c-.91-1-2.23-2.17-3.5-1.63a3.38,3.38,0,0,0-1.54,2.14c-10.37,28.68-14.65,60.09-31.35,85.61-3.43-31.14,12.07-62.27,7.57-93.29L551.39,451c-2.79,1.38-7.73,1.43-7.4-1.67a4.43,4.43,0,0,1,1.73-2.59l24.16-22.07-80.51-19.46c-4-1-9.51-2.37-11.79-6.19C476.61,397.34,476.72,396.05,477.44,395.06Z" />
   <path fill="#fff" d="M884.12,329.3c.81-1.11,3-1.55,4.42-1.58,16.25-.43,32,7.4,48.18,6.48a84.4,84.4,0,0,1-10.24-17.67c-.6-1.4-1-3.41.38-4.13,1-.56,2.28.17,3.22.89a73.67,73.67,0,0,1,13.44,13.49,286.51,286.51,0,0,1,17.56-50.1c2,1.55,2,4.54,1.71,7.06q-2.46,24.4-6.91,48.56a76.29,76.29,0,0,1,16.82-8.48c1.27-.45,3.18-.56,3.5.75.21.86-.51,1.64-1.17,2.23l-15.55,14q22.46,5.43,44.51,12.36a3.9,3.9,0,0,1,2.1,1.18,2.64,2.64,0,0,1-.79,3.45,6.62,6.62,0,0,1-3.71,1c-14.42.76-27.88-8.56-42.31-8.15-.57,0-1.26.12-1.5.64a1.56,1.56,0,0,0,.1,1.21c2.28,5.85,8,9.93,10,15.89a2.9,2.9,0,0,1,.06,2.22c-.94,1.84-3.73.4-5.11-1.15L952.54,358c-.5-.57-1.22-1.19-1.92-.9a1.84,1.84,0,0,0-.85,1.18c-5.69,15.74-8,33-17.2,47-1.89-17.09,6.62-34.18,4.15-51.21l-12,5.93c-1.53.75-4.24.78-4.06-.92a2.43,2.43,0,0,1,1-1.42l13.26-12.12-44.19-10.68c-2.2-.53-5.22-1.3-6.47-3.4A1.82,1.82,0,0,1,884.12,329.3Z" />
   <path fill="#fff" d="M1597.86,958.61c1.16-1.59,4.33-2.21,6.33-2.27,23.27-.61,45.75,10.6,69,9.28a120.17,120.17,0,0,1-14.66-25.29c-.86-2-1.39-4.88.54-5.92,1.49-.8,3.27.25,4.61,1.28A105.63,105.63,0,0,1,1682.9,955,409.88,409.88,0,0,1,1708,883.29c2.87,2.21,2.8,6.49,2.44,10.1q-3.51,34.93-9.89,69.51a109,109,0,0,1,24.08-12.13c1.82-.65,4.55-.81,5,1.07.3,1.23-.73,2.35-1.67,3.19l-22.27,20.09q32.15,7.77,63.73,17.69a5.59,5.59,0,0,1,3,1.69c1.11,1.51.36,3.8-1.12,4.94a9.47,9.47,0,0,1-5.31,1.49c-20.65,1.09-39.91-12.26-60.57-11.67-.82,0-1.8.17-2.15.91a2.19,2.19,0,0,0,.15,1.73c3.25,8.38,11.42,14.22,14.24,22.75a4.18,4.18,0,0,1,.09,3.18c-1.35,2.64-5.35.58-7.32-1.64l-14.65-16.5c-.72-.81-1.76-1.7-2.75-1.28a2.66,2.66,0,0,0-1.22,1.69c-8.15,22.53-11.51,47.22-24.63,67.27-2.7-24.48,9.48-48.94,6-73.31l-17.19,8.48c-2.2,1.08-6.08,1.12-5.82-1.32a3.46,3.46,0,0,1,1.35-2l19-17.35-63.26-15.29c-3.14-.75-7.47-1.86-9.26-4.86A2.61,2.61,0,0,1,1597.86,958.61Z" />
   <path fill="#fff" d="M463.44,592.32c1-.94,3.26-.94,4.64-.71,16,2.67,30,13.36,46.07,15.54a83.37,83.37,0,0,1-6.69-19.29c-.32-1.5-.3-3.54,1.16-4,1.13-.35,2.21.6,3,1.49a73.62,73.62,0,0,1,10.63,15.81A286.12,286.12,0,0,1,549,555.34c1.68,1.9,1.06,4.83.33,7.25q-7.07,23.49-16,46.35a76.69,76.69,0,0,1,18.13-5.11c1.34-.21,3.23,0,3.29,1.4,0,.88-.81,1.51-1.57,2L535.22,618q21,9.6,41.34,20.61a4,4,0,0,1,1.83,1.56,2.63,2.63,0,0,1-1.43,3.24,6.59,6.59,0,0,1-3.84.31c-14.3-2-25.73-13.72-40-16.06-.57-.1-1.26-.13-1.6.33a1.58,1.58,0,0,0-.13,1.21c1.12,6.18,5.94,11.27,6.74,17.5a2.91,2.91,0,0,1-.36,2.19c-1.28,1.63-3.74-.32-4.8-2.1l-7.85-13.27c-.39-.65-1-1.4-1.72-1.24-.49.1-.8.57-1,1-8.6,14.37-14.19,30.85-25.86,42.85,1.41-17.14,13-32.29,13.85-49.47l-12.92,3.52c-1.65.45-4.32,0-3.82-1.68a2.44,2.44,0,0,1,1.2-1.21l15.34-9.37L468.81,599c-2.05-.94-4.88-2.27-5.7-4.57A1.8,1.8,0,0,1,463.44,592.32Z" />
   <path fill="#fff" d="M347.59,1210.92c1-.94,3.27-.94,4.64-.71,16,2.68,30,13.36,46.07,15.55a84.08,84.08,0,0,1-6.69-19.3c-.32-1.49-.3-3.53,1.16-4,1.13-.36,2.21.6,3,1.49a73.31,73.31,0,0,1,10.63,15.8,286.12,286.12,0,0,1,26.78-45.83c1.68,1.9,1.06,4.83.33,7.26q-7.06,23.49-16,46.34a76.69,76.69,0,0,1,18.13-5.11c1.34-.2,3.23,0,3.29,1.4,0,.89-.81,1.51-1.57,2l-17.94,10.81q21,9.6,41.34,20.61a3.92,3.92,0,0,1,1.83,1.57,2.62,2.62,0,0,1-1.43,3.23,6.59,6.59,0,0,1-3.84.32c-14.3-2-25.73-13.72-40-16.07-.56-.09-1.25-.12-1.6.34a1.55,1.55,0,0,0-.12,1.2c1.11,6.18,5.94,11.27,6.73,17.5a2.91,2.91,0,0,1-.36,2.19c-1.28,1.63-3.74-.31-4.8-2.1l-7.85-13.27c-.39-.65-1-1.39-1.72-1.24-.48.1-.8.57-1.05,1-8.59,14.36-14.19,30.84-25.85,42.85,1.4-17.15,13-32.3,13.84-49.48l-12.92,3.52c-1.65.45-4.31,0-3.81-1.67a2.41,2.41,0,0,1,1.2-1.22l15.33-9.36L353,1217.62c-2-.94-4.87-2.28-5.7-4.57A1.83,1.83,0,0,1,347.59,1210.92Z" />
</svg>